<?xml version="1.0" encoding="utf-8"?>
<!-- Generator: Adobe Illustrator 16.0.0, SVG Export Plug-In . SVG Version: 6.00 Build 0)  -->
<!DOCTYPE svg PUBLIC "-//W3C//DTD SVG 1.1//EN" "http://www.w3.org/Graphics/SVG/1.1/DTD/svg11.dtd">
<svg version="1.1" id="Capa_1" xmlns="http://www.w3.org/2000/svg" xmlns:xlink="http://www.w3.org/1999/xlink" x="0px" y="0px"
	 width="153px" height="242.641px" viewBox="0 0 153 242.641" enable-background="new 0 0 153 242.641" xml:space="preserve">
<path fill="#20B999" d="M104.662,76.339c0,3.313-2.688,6-6,6H28.95c-3.313,0-6-2.688-6-6V61.02c0-3.313,2.687-6,6-6h69.712
	c3.313,0,6,2.687,6,6V76.339z"/>
<path fill="#20B999" d="M104.662,200.34c0,3.313-2.688,6-6,6H28.95c-3.313,0-6-2.688-6-6v-15.32c0-3.313,2.687-6,6-6h69.712
	c3.313,0,6,2.688,6,6V200.34z"/>
<g>
	<g>
		<path fill="#301F51" d="M90.408,44.82H21.795c-4.988,0-9.045,4.059-9.045,9.045V67.77c0,1.407,1.143,2.55,2.55,2.55H96.9
			c1.406,0,2.55-1.143,2.55-2.55V53.865C99.45,48.878,95.393,44.82,90.408,44.82z M94.35,65.22h-76.5V53.865
			c0-2.175,1.77-3.943,3.945-3.943h68.609c2.176,0,3.945,1.77,3.945,3.943V65.22L94.35,65.22z"/>
	</g>
</g>
<g>
	<g>
		<path fill="#301F51" d="M96.9,172.32H15.3c-1.407,0-2.55,1.144-2.55,2.551v13.904c0,4.987,4.057,9.045,9.045,9.045h68.609
			c4.988,0,9.046-4.057,9.046-9.045V174.87C99.45,173.463,98.309,172.32,96.9,172.32z M94.35,188.775c0,2.176-1.77,3.945-3.94,3.945
			H21.795c-2.175,0-3.945-1.771-3.945-3.945V177.42h76.5V188.775z"/>
	</g>
</g>
<g>
	<g>
		<path fill="#301F51" d="M56.1,172.32c-7.03,0-12.75,5.721-12.75,12.75c0,7.03,5.72,12.75,12.75,12.75
			c7.03,0,12.75-5.72,12.75-12.75C68.85,178.04,63.13,172.32,56.1,172.32z M56.1,192.72c-4.218,0-7.65-3.433-7.65-7.65
			c0-4.217,3.433-7.649,7.65-7.649c4.217,0,7.65,3.433,7.65,7.649C63.75,189.287,60.317,192.72,56.1,192.72z"/>
	</g>
</g>
<g>
	<g>
		<path fill="#301F51" d="M63.75,55.02h-15.3c-1.407,0-2.55,1.144-2.55,2.55c0,1.407,1.143,2.551,2.55,2.551h15.3
			c1.407,0,2.55-1.144,2.55-2.551C66.3,56.163,65.158,55.02,63.75,55.02z"/>
	</g>
</g>
<polygon fill="#20B999" points="56.983,148.213 56.983,90.364 148.982,90.364 148.982,135.463 72.983,135.463 "/>
<g>
	<g>
		<path fill="#301F51" d="M71.323,162.12H25.5c-1.408,0-2.55,1.143-2.55,2.55s1.142,2.55,2.55,2.55h45.823
			c1.408,0,2.55-1.143,2.55-2.55S72.731,162.12,71.323,162.12z"/>
	</g>
</g>
<g>
	<g>
		<path fill="#301F51" d="M86.699,162.12h-5.1c-1.408,0-2.551,1.143-2.551,2.55s1.143,2.55,2.551,2.55h5.1
			c1.408,0,2.551-1.143,2.551-2.55S88.107,162.12,86.699,162.12z"/>
	</g>
</g>
<g>
	<g>
		<path fill="#301F51" d="M86.699,151.92H76.5c-1.408,0-2.55,1.143-2.55,2.551c0,1.407,1.142,2.55,2.55,2.55h10.199
			c1.408,0,2.551-1.143,2.551-2.55C89.25,153.062,88.107,151.92,86.699,151.92z"/>
	</g>
</g>
<g>
	<g>
		<path fill="#301F51" d="M30.6,151.92h-5.1c-1.408,0-2.55,1.143-2.55,2.551c0,1.407,1.142,2.55,2.55,2.55h5.1
			c1.407,0,2.55-1.143,2.55-2.55C33.15,153.062,32.007,151.92,30.6,151.92z"/>
	</g>
</g>
<g>
	<g>
		<path fill="#301F51" d="M66.3,151.92H40.8c-1.408,0-2.55,1.143-2.55,2.551c0,1.407,1.142,2.55,2.55,2.55h25.5
			c1.407,0,2.55-1.143,2.55-2.55C68.85,153.062,67.708,151.92,66.3,151.92z"/>
	</g>
</g>
<g>
	<g>
		<g>
			<path fill="#20B999" d="M147.352,86.62H55.551c-1.408,0-2.551,1.142-2.551,2.55v61.199c0,1.03,0.623,1.961,1.576,2.356
				c0.314,0.129,0.646,0.193,0.975,0.193c0.663,0,1.315-0.26,1.803-0.746l14.553-14.555h75.444c1.406,0,2.549-1.144,2.549-2.55
				V89.169C149.9,87.762,148.758,86.62,147.352,86.62z M144.801,132.519h-73.95c-0.676,0-1.326,0.269-1.804,0.748L58.1,144.215
				V91.72h86.701V132.519L144.801,132.519z"/>
		</g>
	</g>
	<g>
		<path fill="#301F51" d="M137.7,77.97H45.9c-1.407,0-2.55,1.142-2.55,2.55v61.199c0,1.031,0.622,1.961,1.576,2.356
			c0.313,0.13,0.645,0.193,0.974,0.193c0.663,0,1.315-0.261,1.803-0.747l14.553-14.554H137.7c1.407,0,2.55-1.143,2.55-2.55V80.52
			C140.25,79.112,139.107,77.97,137.7,77.97z M135.15,123.87H61.2c-0.676,0-1.326,0.268-1.803,0.747L48.45,135.564V83.07h86.7
			V123.87L135.15,123.87z"/>
	</g>
</g>
<g>
	<g>
		<path fill="#301F51" d="M96.9,83.07c1.406,0,2.55-1.143,2.55-2.55V53.865c0-4.986-4.058-9.045-9.042-9.045H21.795
			c-4.988,0-9.045,4.059-9.045,9.045v134.91c0,4.988,4.057,9.045,9.045,9.045h68.609c4.988,0,9.046-4.057,9.046-9.045v-62.354
			c0-1.408-1.142-2.551-2.55-2.551H61.2c-0.676,0-1.326,0.269-1.803,0.747L48.45,135.564V83.07H96.9z M44.923,144.076
			c0.951,0.393,2.05,0.176,2.779-0.554l14.553-14.554H94.35v59.806c0,2.176-1.77,3.944-3.94,3.944H21.795
			c-2.175,0-3.945-1.77-3.945-3.944V53.865c0-2.175,1.77-3.943,3.945-3.943h68.609c2.176,0,3.945,1.77,3.945,3.943V77.97H45.9
			c-1.407,0-2.55,1.143-2.55,2.55v61.2C43.35,142.751,43.972,143.681,44.923,144.076z"/>
	</g>
</g>
<g>
	<path fill="#301F51" d="M83.244,102.839c0,7.683-4.658,12.069-10.981,12.069c-6.459,0-10.539-4.931-10.539-11.661
		c0-7.037,4.42-12,10.879-12C79.3,91.246,83.244,96.312,83.244,102.839z M66.144,103.179c0,4.658,2.346,8.363,6.357,8.363
		c4.046,0,6.323-3.74,6.323-8.533c0-4.317-2.142-8.397-6.323-8.397C68.353,94.612,66.144,98.453,66.144,103.179z"/>
	<path fill="#301F51" d="M93.717,95.122h-6.527V91.62h17.306v3.501h-6.597v19.412h-4.182V95.122z"/>
	<path fill="#301F51" d="M110.582,91.926c1.495-0.272,3.568-0.476,6.391-0.476c3.062,0,5.305,0.646,6.766,1.869
		c1.361,1.122,2.244,2.925,2.244,5.065c0,2.176-0.68,3.978-1.971,5.202c-1.666,1.666-4.285,2.448-7.242,2.448
		c-0.781,0-1.496-0.034-2.039-0.137v8.636h-4.147L110.582,91.926L110.582,91.926z M114.729,102.601
		c0.51,0.136,1.189,0.17,2.041,0.17c3.127,0,5.03-1.529,5.03-4.216c0-2.55-1.768-3.91-4.657-3.91c-1.156,0-1.973,0.103-2.414,0.204
		V102.601z"/>
</g>
</svg>
